<svg width="68" height="68" viewBox="0 0 68 68" fill="none" xmlns="http://www.w3.org/2000/svg">
<path opacity="0.5" d="M37.2724 54.3431C37.3332 48.1299 35.758 43.0773 33.7543 43.0577C31.7505 43.0382 30.0769 48.0591 30.0162 54.2721C29.9554 60.4853 31.5306 65.538 33.5343 65.5575C35.5382 65.5771 37.2118 60.5563 37.2724 54.3431Z" fill="#5E53F5"/>
<path d="M25.6514 52.9325C29.0618 47.7387 30.4686 42.6366 28.7936 41.5367C27.1185 40.4368 22.9959 43.7556 19.5856 48.9495C16.1751 54.1434 14.7683 59.2454 16.4433 60.3454C18.1184 61.4453 22.2409 58.1264 25.6514 52.9325Z" fill="#5E53F5"/>
<path d="M16.6242 45.4799C22.3015 42.9547 26.2435 39.4233 25.429 37.5924C24.6146 35.7614 19.3522 36.3244 13.675 38.8497C7.99786 41.3749 4.05583 44.9063 4.87023 46.7372C5.68463 48.5681 10.9471 48.0052 16.6242 45.4799Z" fill="#5E53F5"/>
<path d="M24.7476 32.4594C25.0524 30.4789 20.3211 28.1071 14.1801 27.1618C8.0389 26.2166 2.8134 27.056 2.50857 29.0365C2.20374 31.017 6.935 33.3887 13.0762 34.334C19.2172 35.2792 24.4428 34.4398 24.7476 32.4594Z" fill="#5E53F5"/>
<path d="M26.9523 27.7407C28.2794 26.2393 25.5809 21.6865 20.9251 17.5717C16.2694 13.457 11.4194 11.3386 10.0924 12.8401C8.76538 14.3416 11.4639 18.8944 16.1197 23.0092C20.7754 27.1239 25.6254 29.2423 26.9523 27.7407Z" fill="#5E53F5"/>
<path d="M31.3434 24.9837C33.2716 24.4381 33.4631 19.149 31.7714 13.1703C30.0796 7.19163 27.145 2.78724 25.2169 3.33286C23.2887 3.87847 23.0972 9.16746 24.7889 15.1462C26.4807 21.1248 29.4153 25.5293 31.3434 24.9837Z" fill="#5E53F5"/>
<path d="M43.2667 15.3308C45.0761 9.38663 44.9889 4.09488 43.0719 3.51135C41.1549 2.92782 38.134 7.27348 36.3246 13.2177C34.5153 19.1618 34.6025 24.4536 36.5196 25.0371C38.4366 25.6206 41.4574 21.275 43.2667 15.3308Z" fill="#5E53F5"/>
<path d="M51.7866 23.3642C56.522 19.3413 59.309 14.842 58.0115 13.3149C56.7141 11.7878 51.8236 13.8111 47.0884 17.8339C42.353 21.8569 39.5661 26.3561 40.8635 27.8832C42.1609 29.4104 47.0514 27.3872 51.7866 23.3642Z" fill="#5E53F5"/>
<path opacity="0.5" d="M54.6036 34.73C60.7623 33.906 65.5393 31.628 65.2736 29.6418C65.0079 27.6557 59.8 26.7136 53.6413 27.5374C47.4828 28.3613 42.7056 30.6393 42.9714 32.6255C43.2371 34.6116 48.445 35.5539 54.6036 34.73Z" fill="#5E53F5"/>
<path opacity="0.5" d="M62.5483 47.3055C63.3987 45.4911 59.5271 41.8827 53.9008 39.2459C48.2746 36.6092 43.0242 35.9427 42.1739 37.7571C41.3235 39.5716 45.1951 43.18 50.8214 45.8168C56.4476 48.4534 61.698 49.12 62.5483 47.3055Z" fill="#5E53F5"/>
<path opacity="0.5" d="M50.7137 60.6933C52.41 59.6267 51.1041 54.4978 47.7968 49.2377C44.4895 43.9776 40.4331 40.5782 38.7367 41.6448C37.0404 42.7113 38.3463 47.8403 41.6536 53.1004C44.9609 58.3605 49.0173 61.76 50.7137 60.6933Z" fill="#5E53F5"/>
</svg>
